# xmcd
#
# Track frame offsets:
#	150
#	20407
#	44520
#	56257
#	71697
#	84507
#	100262
#	121572
#	136035
#	157295
#	175017
#	199195
#	213947
#	235010
#	250107
#	266665
#	279850
#	300205
#	315297
#	329815
#
# Disc length: 4677 seconds
#
# Revision: 0
# Processed by: cddbd v1.5.2PL0 Copyright (c) Steve Scherf et al.
# Submitted via: EZCDAudioConverter 2.1.7.1
#
DISCID=08124314
DTITLE=V/A - Red Hot and Blue
DYEAR=1990
DGENRE=
TTITLE0=Neneh Cherry - I've Got U Under My Skin
TTITLE1=Neville Brothers - In The Still Of The Night
TTITLE2=Sinead O'Connor - You Do Something To Me
TTITLE3=Salif Keita - Begin The Beguine
TTITLE4=Fine Young Cannibals - Love For Sale
TTITLE5=Debbie Harry and Iggy Pop - Well Did You Evah
TTITLE6=Kirsty MacColl and The Pogues - Miss Otis Regrets/Just One Of Those Thin
TTITLE6=gs
TTITLE7=David Byrne - Don't Fence Me In
TTITLE8=Tom Waits - It's All Right With Me
TTITLE9=Annie Lennox - Ev'rytime We Say Goodbye
TTITLE10=U2 - Night and Day
TTITLE11=Les Negresses Vertes - I Love Paris
TTITLE12=K.D. Lang - So In Love
TTITLE13=Thompson Twins - Who Wants To Be A Millionaire
TTITLE14=Erasure - Too Darn Hot
TTITLE15=Jungle Brothers - I Get A Kick
TTITLE16=Lisa Stansfield - Down In The Depths
TTITLE17=Jimmy Somerville - From This Moment On
TTITLE18=Jody Watley - After You Who
TTITLE19=Aztec Camera - Do I Love You
EXTD=
EXTT0=
EXTT1=
EXTT2=
EXTT3=
EXTT4=
EXTT5=
EXTT6=
EXTT7=
EXTT8=
EXTT9=
EXTT10=
EXTT11=
EXTT12=
EXTT13=
EXTT14=
EXTT15=
EXTT16=
EXTT17=
EXTT18=
EXTT19=
PLAYORDER=
